<svg xmlns="http://www.w3.org/2000/svg" viewBox="0 0 48 48" fill="none">
  <!-- Outer circle - shield shape -->
  <circle cx="24" cy="24" r="22" fill="#0D2B1F" />
  <!-- Shield body -->
  <path d="M24 6 L38 12 L38 26 C38 33 31 40 24 43 C17 40 10 33 10 26 L10 12 Z" fill="#16A34A" opacity="0.15"/>
  <path d="M24 8 L36 13.5 L36 26 C36 32 30 38.5 24 41 C18 38.5 12 32 12 26 L12 13.5 Z" fill="none" stroke="#16A34A" stroke-width="1.5"/>
  <!-- N letter stylized -->
  <path d="M18 30 L18 18 L26 30 L26 18" stroke="white" stroke-width="2.5" stroke-linecap="round" stroke-linejoin="round" fill="none"/>
  <!-- DNA helix dots -->
  <circle cx="30" cy="20" r="1.5" fill="#D97706"/>
  <circle cx="32" cy="23" r="1.5" fill="#16A34A"/>
  <circle cx="30" cy="26" r="1.5" fill="#D97706"/>
  <circle cx="32" cy="29" r="1.5" fill="#16A34A"/>
  <!-- Connecting lines -->
  <line x1="30" y1="20" x2="32" y2="23" stroke="#D97706" stroke-width="0.8" opacity="0.6"/>
  <line x1="32" y1="23" x2="30" y2="26" stroke="#16A34A" stroke-width="0.8" opacity="0.6"/>
  <line x1="30" y1="26" x2="32" y2="29" stroke="#D97706" stroke-width="0.8" opacity="0.6"/>
</svg>
